<?xml version="1.0" standalone="no"?>
<!DOCTYPE svg PUBLIC "-//W3C//DTD SVG 20010904//EN"
 "http://www.w3.org/TR/2001/REC-SVG-20010904/DTD/svg10.dtd">
<svg version="1.0" xmlns="http://www.w3.org/2000/svg"
 width="450.000000pt" height="360.000000pt" viewBox="0 0 450.000000 360.000000"
 preserveAspectRatio="xMidYMid meet">
<metadata>
Created by potrace 1.16, written by Peter Selinger 2001-2019
</metadata>
<g transform="translate(0.000000,360.000000) scale(0.100000,-0.100000)"
fill="#000000" stroke="none">
<path d="M3313 2680 c-36 -22 -58 -52 -68 -92 -8 -33 -6 -33 -55 -8 -81 41
-218 71 -350 77 -102 4 -158 0 -300 -20 -96 -14 -210 -28 -252 -32 -90 -7
-230 9 -305 34 -49 17 -52 17 -38 1 27 -30 111 -70 191 -90 93 -24 257 -26
354 -5 77 17 191 19 279 4 85 -13 117 -32 41 -24 -79 8 -222 -10 -320 -42 -83
-26 -91 -27 -320 -27 -229 0 -380 15 -459 45 -13 5 -26 7 -29 5 -10 -10 164
-86 243 -107 54 -14 129 -23 230 -27 l150 -7 -95 -14 c-54 -8 -204 -15 -345
-17 -210 -3 -262 -6 -327 -23 -145 -37 -267 -98 -352 -173 l-41 -37 110 55
c61 30 146 63 189 74 97 25 249 26 421 5 331 -41 597 4 940 163 195 90 276
116 369 118 76 2 79 3 98 33 11 17 21 31 23 31 2 0 17 -22 35 -49 21 -33 30
-60 28 -78 -3 -25 -11 -31 -68 -51 -96 -34 -113 -54 -124 -137 l-6 -50 19 41
c23 50 74 94 110 94 15 0 44 9 65 19 l38 20 -4 -30 c-5 -35 1 -36 23 -6 28 39
30 71 8 113 -15 29 -20 59 -20 117 0 42 -4 77 -9 77 -4 0 -19 -24 -33 -52
l-26 -53 0 42 c-1 23 4 54 9 69 14 35 10 37 -27 14z"/>
<path d="M3540 2356 c23 -62 110 -167 282 -339 l178 -178 -21 -29 c-12 -15
-18 -33 -15 -39 9 -14 -32 -34 -60 -28 -18 3 -24 0 -24 -13 0 -10 -7 -23 -15
-30 -22 -18 -35 -2 -42 49 -5 39 -8 41 -39 41 -19 0 -44 9 -61 24 -47 39 -72
48 -114 41 -39 -7 -66 -26 -32 -23 66 5 108 -25 155 -114 52 -97 134 -130 177
-69 12 17 34 31 52 35 38 7 59 23 59 44 0 8 8 20 17 27 21 15 22 68 4 114 -8
17 -34 46 -58 62 -50 35 -253 233 -372 364 -59 65 -79 82 -71 61z"/>
<path d="M3012 2239 c-35 -74 -46 -143 -32 -197 6 -26 16 -52 21 -58 7 -8 -15
-29 -73 -69 -104 -74 -224 -192 -276 -274 -39 -60 -87 -169 -79 -178 2 -2 44
47 93 108 132 167 225 237 362 275 56 16 63 16 108 0 103 -36 257 -29 349 14
l40 18 -65 1 c-133 2 -251 46 -329 121 -56 55 -83 117 -91 210 l-6 75 -22 -46z"/>
<path d="M1990 2175 c-8 -2 -49 -9 -90 -15 -88 -15 -213 -57 -308 -105 -163
-81 -334 -118 -547 -118 -161 1 -282 19 -417 64 -51 17 -100 33 -108 35 -31
10 68 -49 160 -95 272 -138 497 -154 815 -60 39 12 178 67 310 124 290 124
319 133 518 156 7 1 -13 5 -43 9 -53 8 -259 11 -290 5z"/>
<path d="M2080 1624 c-79 -27 -119 -50 -59 -34 154 40 261 7 311 -95 9 -16 25
-64 37 -105 13 -41 32 -89 42 -107 20 -31 20 -32 58 -18 181 64 423 41 806
-76 88 -27 166 -49 174 -49 20 0 -24 32 -99 73 -166 90 -400 145 -657 154
-135 5 -173 9 -173 19 0 8 -10 44 -22 81 -27 82 -93 155 -154 172 -70 19 -182
13 -264 -15z"/>
<path d="M1800 1033 c0 -83 39 -139 130 -182 51 -24 65 -26 195 -26 l140 1
147 51 c174 61 293 88 446 103 106 10 248 2 295 -15 20 -8 23 -25 3 -25 -43 0
-160 -86 -209 -155 l-22 -30 35 23 c55 37 131 69 245 104 58 18 105 35 105 38
0 3 -21 22 -47 42 -170 128 -293 125 -845 -16 -216 -56 -339 -67 -437 -42 -82
21 -127 55 -157 120 l-24 51 0 -42z"/>
</g>
</svg>
